<mxfile host="app.diagrams.net" modified="2024-01-16T15:24:10.686Z" agent="Mozilla/5.0 (Macintosh; Intel Mac OS X 10.15; rv:120.0) Gecko/20100101 Firefox/120.0" etag="JMEp9GcoddUUQKQuszCg" version="22.1.17" type="device">
  <diagram id="R2lEEEUBdFMjLlhIrx00" name="Page-1">
    <mxGraphModel dx="1572" dy="829" grid="1" gridSize="10" guides="1" tooltips="1" connect="1" arrows="1" fold="1" page="1" pageScale="1" pageWidth="3300" pageHeight="4681" math="0" shadow="0" extFonts="Permanent Marker^https://fonts.googleapis.com/css?family=Permanent+Marker">
      <root>
        <mxCell id="0" />
        <mxCell id="1" parent="0" />
        <mxCell id="SL3OJ4g4mQe82jDkw0CZ-2" value="" style="endArrow=oval;html=1;rounded=0;endFill=0;entryX=0.5;entryY=1;entryDx=0;entryDy=0;" parent="1" target="SL3OJ4g4mQe82jDkw0CZ-3" edge="1">
          <mxGeometry width="50" height="50" relative="1" as="geometry">
            <mxPoint x="1130" y="1566.1499999999999" as="sourcePoint" />
            <mxPoint x="1120.51" y="1535.84" as="targetPoint" />
          </mxGeometry>
        </mxCell>
        <mxCell id="SL3OJ4g4mQe82jDkw0CZ-3" value="&lt;font style=&quot;font-size: 7px;&quot;&gt;Nome&lt;/font&gt;" style="text;html=1;strokeColor=none;fillColor=none;align=center;verticalAlign=middle;whiteSpace=wrap;rounded=0;rotation=0;" parent="1" vertex="1">
          <mxGeometry x="1100" y="1506.1499999999999" width="60" height="30" as="geometry" />
        </mxCell>
        <mxCell id="SL3OJ4g4mQe82jDkw0CZ-33" style="edgeStyle=orthogonalEdgeStyle;rounded=0;orthogonalLoop=1;jettySize=auto;html=1;entryX=0.75;entryY=1;entryDx=0;entryDy=0;strokeColor=#031CFF;" parent="1" source="SL3OJ4g4mQe82jDkw0CZ-14" target="Oc1ZdkjXdi-IqZoQddms-9" edge="1">
          <mxGeometry relative="1" as="geometry">
            <Array as="points">
              <mxPoint x="1196" y="1660" />
            </Array>
            <mxPoint x="1160.51" y="1680" as="targetPoint" />
          </mxGeometry>
        </mxCell>
        <mxCell id="SL3OJ4g4mQe82jDkw0CZ-14" value="Autisti" style="rounded=0;whiteSpace=wrap;html=1;" parent="1" vertex="1">
          <mxGeometry x="1330" y="1630" width="120" height="60" as="geometry" />
        </mxCell>
        <mxCell id="SL3OJ4g4mQe82jDkw0CZ-32" style="edgeStyle=orthogonalEdgeStyle;rounded=0;orthogonalLoop=1;jettySize=auto;html=1;entryX=1;entryY=0.25;entryDx=0;entryDy=0;strokeColor=#031CFF;" parent="1" source="SL3OJ4g4mQe82jDkw0CZ-17" target="Oc1ZdkjXdi-IqZoQddms-9" edge="1">
          <mxGeometry relative="1" as="geometry">
            <mxPoint x="1210.5100000000002" y="1650" as="targetPoint" />
          </mxGeometry>
        </mxCell>
        <mxCell id="SL3OJ4g4mQe82jDkw0CZ-17" value="Manutentori" style="rounded=0;whiteSpace=wrap;html=1;" parent="1" vertex="1">
          <mxGeometry x="1330" y="1470" width="120" height="60" as="geometry" />
        </mxCell>
        <mxCell id="SL3OJ4g4mQe82jDkw0CZ-18" value="" style="endArrow=oval;html=1;rounded=0;endFill=1;" parent="1" target="SL3OJ4g4mQe82jDkw0CZ-19" edge="1">
          <mxGeometry width="50" height="50" relative="1" as="geometry">
            <mxPoint x="1340" y="1470" as="sourcePoint" />
            <mxPoint x="1340" y="1430" as="targetPoint" />
          </mxGeometry>
        </mxCell>
        <mxCell id="SL3OJ4g4mQe82jDkw0CZ-19" value="&lt;font style=&quot;font-size: 7px;&quot;&gt;ID_Manutentore&lt;/font&gt;" style="text;html=1;strokeColor=none;fillColor=none;align=center;verticalAlign=middle;whiteSpace=wrap;rounded=0;" parent="1" vertex="1">
          <mxGeometry x="1310" y="1410" width="60" height="30" as="geometry" />
        </mxCell>
        <mxCell id="SL3OJ4g4mQe82jDkw0CZ-20" value="" style="endArrow=oval;html=1;rounded=0;exitX=0.5;exitY=0;exitDx=0;exitDy=0;endFill=0;" parent="1" target="SL3OJ4g4mQe82jDkw0CZ-21" edge="1">
          <mxGeometry width="50" height="50" relative="1" as="geometry">
            <mxPoint x="1400" y="1470" as="sourcePoint" />
            <mxPoint x="1400" y="1420" as="targetPoint" />
          </mxGeometry>
        </mxCell>
        <mxCell id="SL3OJ4g4mQe82jDkw0CZ-21" value="&lt;span style=&quot;font-size: 7px;&quot;&gt;Qualifica&lt;br&gt;&lt;/span&gt;" style="text;html=1;strokeColor=none;fillColor=none;align=center;verticalAlign=middle;whiteSpace=wrap;rounded=0;" parent="1" vertex="1">
          <mxGeometry x="1370" y="1410" width="60" height="30" as="geometry" />
        </mxCell>
        <mxCell id="SL3OJ4g4mQe82jDkw0CZ-102" style="edgeStyle=orthogonalEdgeStyle;rounded=0;orthogonalLoop=1;jettySize=auto;html=1;entryX=0.5;entryY=1;entryDx=0;entryDy=0;strokeColor=#031CFF;" parent="1" source="SL3OJ4g4mQe82jDkw0CZ-22" target="Oc1ZdkjXdi-IqZoQddms-9" edge="1">
          <mxGeometry relative="1" as="geometry">
            <Array as="points">
              <mxPoint x="1190" y="1670" />
              <mxPoint x="1171" y="1670" />
            </Array>
            <mxPoint x="1125.1546609406726" y="1671.2132034355964" as="targetPoint" />
          </mxGeometry>
        </mxCell>
        <mxCell id="SL3OJ4g4mQe82jDkw0CZ-22" value="Addetti Marketing" style="rounded=0;whiteSpace=wrap;html=1;" parent="1" vertex="1">
          <mxGeometry x="1130" y="1840" width="120" height="60" as="geometry" />
        </mxCell>
        <mxCell id="SL3OJ4g4mQe82jDkw0CZ-23" value="" style="endArrow=oval;html=1;rounded=0;endFill=1;" parent="1" target="SL3OJ4g4mQe82jDkw0CZ-24" edge="1">
          <mxGeometry width="50" height="50" relative="1" as="geometry">
            <mxPoint x="1140" y="1839.45" as="sourcePoint" />
            <mxPoint x="1080" y="1799.45" as="targetPoint" />
          </mxGeometry>
        </mxCell>
        <mxCell id="SL3OJ4g4mQe82jDkw0CZ-24" value="&lt;font style=&quot;font-size: 7px;&quot;&gt;ID_Addetto&lt;br&gt;&lt;/font&gt;" style="text;html=1;strokeColor=none;fillColor=none;align=center;verticalAlign=middle;whiteSpace=wrap;rounded=0;" parent="1" vertex="1">
          <mxGeometry x="1110" y="1779.45" width="60" height="30" as="geometry" />
        </mxCell>
        <mxCell id="SL3OJ4g4mQe82jDkw0CZ-26" value="" style="endArrow=oval;html=1;rounded=0;endFill=1;" parent="1" target="SL3OJ4g4mQe82jDkw0CZ-27" edge="1">
          <mxGeometry width="50" height="50" relative="1" as="geometry">
            <mxPoint x="1350" y="1630" as="sourcePoint" />
            <mxPoint x="1350" y="1590" as="targetPoint" />
          </mxGeometry>
        </mxCell>
        <mxCell id="SL3OJ4g4mQe82jDkw0CZ-27" value="&lt;span style=&quot;font-size: 7px;&quot;&gt;ID_Autista&lt;/span&gt;" style="text;html=1;strokeColor=none;fillColor=none;align=center;verticalAlign=middle;whiteSpace=wrap;rounded=0;" parent="1" vertex="1">
          <mxGeometry x="1320" y="1570" width="60" height="30" as="geometry" />
        </mxCell>
        <mxCell id="SL3OJ4g4mQe82jDkw0CZ-36" value="&lt;div&gt;Contatta&lt;/div&gt;&lt;div&gt;per&lt;/div&gt;&lt;div&gt;Guasto&lt;br&gt;&lt;/div&gt;" style="shape=rhombus;perimeter=rhombusPerimeter;whiteSpace=wrap;html=1;align=center;" parent="1" vertex="1">
          <mxGeometry x="1479.52" y="1533.5" width="90" height="85" as="geometry" />
        </mxCell>
        <mxCell id="SL3OJ4g4mQe82jDkw0CZ-37" value="" style="resizable=0;html=1;whiteSpace=wrap;align=right;verticalAlign=bottom;" parent="1" connectable="0" vertex="1">
          <mxGeometry x="1569.5200000000004" y="1581.1100000000001" as="geometry" />
        </mxCell>
        <mxCell id="SL3OJ4g4mQe82jDkw0CZ-38" value="" style="resizable=0;html=1;whiteSpace=wrap;align=right;verticalAlign=bottom;" parent="1" connectable="0" vertex="1">
          <mxGeometry x="1490.0001576883378" y="1581.1100000000001" as="geometry" />
        </mxCell>
        <mxCell id="SL3OJ4g4mQe82jDkw0CZ-39" value="" style="endArrow=none;html=1;rounded=0;exitX=1;exitY=0.5;exitDx=0;exitDy=0;entryX=0.5;entryY=0;entryDx=0;entryDy=0;" parent="1" source="SL3OJ4g4mQe82jDkw0CZ-17" target="SL3OJ4g4mQe82jDkw0CZ-36" edge="1">
          <mxGeometry relative="1" as="geometry">
            <mxPoint x="1540" y="1650" as="sourcePoint" />
            <mxPoint x="1700" y="1650" as="targetPoint" />
            <Array as="points">
              <mxPoint x="1525" y="1500" />
            </Array>
          </mxGeometry>
        </mxCell>
        <mxCell id="SL3OJ4g4mQe82jDkw0CZ-40" value="0,N" style="resizable=0;html=1;whiteSpace=wrap;align=right;verticalAlign=bottom;labelBackgroundColor=default;" parent="SL3OJ4g4mQe82jDkw0CZ-39" connectable="0" vertex="1">
          <mxGeometry x="1" relative="1" as="geometry">
            <mxPoint x="-25" y="-23" as="offset" />
          </mxGeometry>
        </mxCell>
        <mxCell id="SL3OJ4g4mQe82jDkw0CZ-41" value="" style="endArrow=none;html=1;rounded=0;exitX=1;exitY=0.5;exitDx=0;exitDy=0;entryX=0.5;entryY=1;entryDx=0;entryDy=0;" parent="1" source="SL3OJ4g4mQe82jDkw0CZ-14" target="SL3OJ4g4mQe82jDkw0CZ-36" edge="1">
          <mxGeometry relative="1" as="geometry">
            <mxPoint x="1460" y="1660" as="sourcePoint" />
            <mxPoint x="1620" y="1670" as="targetPoint" />
            <Array as="points">
              <mxPoint x="1525" y="1660" />
            </Array>
          </mxGeometry>
        </mxCell>
        <mxCell id="SL3OJ4g4mQe82jDkw0CZ-42" value="0,N" style="resizable=0;html=1;whiteSpace=wrap;align=right;verticalAlign=bottom;labelBackgroundColor=default;" parent="SL3OJ4g4mQe82jDkw0CZ-41" connectable="0" vertex="1">
          <mxGeometry x="1" relative="1" as="geometry">
            <mxPoint x="-25" y="52" as="offset" />
          </mxGeometry>
        </mxCell>
        <mxCell id="SL3OJ4g4mQe82jDkw0CZ-43" value="Patente" style="rounded=0;whiteSpace=wrap;html=1;" parent="1" vertex="1">
          <mxGeometry x="1575" y="1470" width="120" height="60" as="geometry" />
        </mxCell>
        <mxCell id="SL3OJ4g4mQe82jDkw0CZ-44" value="" style="endArrow=oval;html=1;rounded=0;endFill=1;" parent="1" target="SL3OJ4g4mQe82jDkw0CZ-45" edge="1">
          <mxGeometry width="50" height="50" relative="1" as="geometry">
            <mxPoint x="1590" y="1470" as="sourcePoint" />
            <mxPoint x="1590" y="1430" as="targetPoint" />
          </mxGeometry>
        </mxCell>
        <mxCell id="SL3OJ4g4mQe82jDkw0CZ-45" value="&lt;font style=&quot;font-size: 7px;&quot;&gt;Numero patente&lt;/font&gt;" style="text;html=1;strokeColor=none;fillColor=none;align=center;verticalAlign=middle;whiteSpace=wrap;rounded=0;" parent="1" vertex="1">
          <mxGeometry x="1560" y="1410" width="60" height="30" as="geometry" />
        </mxCell>
        <mxCell id="SL3OJ4g4mQe82jDkw0CZ-46" value="" style="endArrow=oval;html=1;rounded=0;exitX=0.5;exitY=0;exitDx=0;exitDy=0;endFill=0;fontColor=#FFFFFF;strokeColor=#000000;labelBackgroundColor=#757575;" parent="1" edge="1">
          <mxGeometry width="50" height="50" relative="1" as="geometry">
            <mxPoint x="1640.01" y="1470" as="sourcePoint" />
            <mxPoint x="1640.01" y="1440" as="targetPoint" />
          </mxGeometry>
        </mxCell>
        <mxCell id="SL3OJ4g4mQe82jDkw0CZ-47" value="&lt;font style=&quot;font-size: 7px;&quot;&gt;DDS&lt;/font&gt;" style="text;html=1;strokeColor=none;fillColor=none;align=center;verticalAlign=middle;whiteSpace=wrap;rounded=0;" parent="1" vertex="1">
          <mxGeometry x="1610" y="1410" width="60" height="30" as="geometry" />
        </mxCell>
        <mxCell id="SL3OJ4g4mQe82jDkw0CZ-48" value="" style="endArrow=oval;html=1;rounded=0;endFill=0;" parent="1" target="SL3OJ4g4mQe82jDkw0CZ-49" edge="1">
          <mxGeometry width="50" height="50" relative="1" as="geometry">
            <mxPoint x="1680" y="1470" as="sourcePoint" />
            <mxPoint x="1680" y="1430" as="targetPoint" />
          </mxGeometry>
        </mxCell>
        <mxCell id="SL3OJ4g4mQe82jDkw0CZ-49" value="&lt;font style=&quot;font-size: 7px;&quot;&gt;Categoria&lt;/font&gt;" style="text;html=1;strokeColor=none;fillColor=none;align=center;verticalAlign=middle;whiteSpace=wrap;rounded=0;" parent="1" vertex="1">
          <mxGeometry x="1650" y="1410" width="60" height="30" as="geometry" />
        </mxCell>
        <mxCell id="SL3OJ4g4mQe82jDkw0CZ-50" value="&lt;div&gt;Autista&lt;/div&gt;&lt;div&gt;Possiede&lt;/div&gt;&lt;div&gt;Patente&lt;br&gt;&lt;/div&gt;" style="shape=rhombus;perimeter=rhombusPerimeter;whiteSpace=wrap;html=1;align=center;" parent="1" vertex="1">
          <mxGeometry x="1597.1599999999999" y="1565" width="75.69" height="75" as="geometry" />
        </mxCell>
        <mxCell id="SL3OJ4g4mQe82jDkw0CZ-51" value="" style="endArrow=none;html=1;rounded=0;exitX=1;exitY=0.75;exitDx=0;exitDy=0;entryX=0.5;entryY=1;entryDx=0;entryDy=0;" parent="1" source="SL3OJ4g4mQe82jDkw0CZ-14" target="SL3OJ4g4mQe82jDkw0CZ-50" edge="1">
          <mxGeometry relative="1" as="geometry">
            <mxPoint x="1580" y="1740" as="sourcePoint" />
            <mxPoint x="1740" y="1740" as="targetPoint" />
            <Array as="points">
              <mxPoint x="1635" y="1675" />
            </Array>
          </mxGeometry>
        </mxCell>
        <mxCell id="SL3OJ4g4mQe82jDkw0CZ-52" value="1,1" style="resizable=0;html=1;whiteSpace=wrap;align=right;verticalAlign=bottom;labelBackgroundColor=default;" parent="SL3OJ4g4mQe82jDkw0CZ-51" connectable="0" vertex="1">
          <mxGeometry x="1" relative="1" as="geometry">
            <mxPoint x="12" y="30" as="offset" />
          </mxGeometry>
        </mxCell>
        <mxCell id="SL3OJ4g4mQe82jDkw0CZ-53" value="" style="endArrow=none;html=1;rounded=0;exitX=0.5;exitY=1;exitDx=0;exitDy=0;entryX=0.5;entryY=0;entryDx=0;entryDy=0;" parent="1" source="SL3OJ4g4mQe82jDkw0CZ-43" target="SL3OJ4g4mQe82jDkw0CZ-50" edge="1">
          <mxGeometry relative="1" as="geometry">
            <mxPoint x="1570" y="1600" as="sourcePoint" />
            <mxPoint x="1730" y="1600" as="targetPoint" />
          </mxGeometry>
        </mxCell>
        <mxCell id="SL3OJ4g4mQe82jDkw0CZ-54" value="1,1" style="resizable=0;html=1;whiteSpace=wrap;align=right;verticalAlign=bottom;labelBackgroundColor=default;" parent="SL3OJ4g4mQe82jDkw0CZ-53" connectable="0" vertex="1">
          <mxGeometry x="1" relative="1" as="geometry">
            <mxPoint x="12" y="-5" as="offset" />
          </mxGeometry>
        </mxCell>
        <mxCell id="SL3OJ4g4mQe82jDkw0CZ-66" value="Offerte" style="rounded=0;whiteSpace=wrap;html=1;" parent="1" vertex="1">
          <mxGeometry x="1130" y="2020" width="120" height="60" as="geometry" />
        </mxCell>
        <mxCell id="SL3OJ4g4mQe82jDkw0CZ-67" value="" style="endArrow=oval;html=1;rounded=0;endFill=1;" parent="1" target="SL3OJ4g4mQe82jDkw0CZ-68" edge="1">
          <mxGeometry width="50" height="50" relative="1" as="geometry">
            <mxPoint x="1140" y="2020" as="sourcePoint" />
            <mxPoint x="1140" y="1980" as="targetPoint" />
          </mxGeometry>
        </mxCell>
        <mxCell id="SL3OJ4g4mQe82jDkw0CZ-68" value="&lt;font style=&quot;font-size: 7px;&quot;&gt;ID_Offerta&lt;br&gt;&lt;/font&gt;" style="text;html=1;strokeColor=none;fillColor=none;align=center;verticalAlign=middle;whiteSpace=wrap;rounded=0;" parent="1" vertex="1">
          <mxGeometry x="1110" y="1960" width="60" height="30" as="geometry" />
        </mxCell>
        <mxCell id="SL3OJ4g4mQe82jDkw0CZ-69" value="" style="endArrow=oval;html=1;rounded=0;exitX=0.5;exitY=0;exitDx=0;exitDy=0;endFill=0;fontColor=#FFFFFF;strokeColor=#000000;labelBackgroundColor=#757575;" parent="1" target="SL3OJ4g4mQe82jDkw0CZ-70" edge="1">
          <mxGeometry width="50" height="50" relative="1" as="geometry">
            <mxPoint x="1190" y="2020" as="sourcePoint" />
            <mxPoint x="1190" y="1970" as="targetPoint" />
          </mxGeometry>
        </mxCell>
        <mxCell id="SL3OJ4g4mQe82jDkw0CZ-70" value="&lt;font style=&quot;font-size: 7px;&quot;&gt;PromoCode&lt;br&gt;&lt;/font&gt;" style="text;html=1;strokeColor=none;fillColor=none;align=center;verticalAlign=middle;whiteSpace=wrap;rounded=0;" parent="1" vertex="1">
          <mxGeometry x="1160" y="1960" width="60" height="30" as="geometry" />
        </mxCell>
        <mxCell id="SL3OJ4g4mQe82jDkw0CZ-71" value="" style="endArrow=oval;html=1;rounded=0;endFill=0;" parent="1" target="SL3OJ4g4mQe82jDkw0CZ-72" edge="1">
          <mxGeometry width="50" height="50" relative="1" as="geometry">
            <mxPoint x="1240" y="2020" as="sourcePoint" />
            <mxPoint x="1240.51" y="1980" as="targetPoint" />
          </mxGeometry>
        </mxCell>
        <mxCell id="SL3OJ4g4mQe82jDkw0CZ-72" value="&lt;font style=&quot;font-size: 7px;&quot;&gt;InfoOfferta&lt;/font&gt;" style="text;html=1;strokeColor=none;fillColor=none;align=center;verticalAlign=middle;whiteSpace=wrap;rounded=0;" parent="1" vertex="1">
          <mxGeometry x="1210.51" y="1960" width="60" height="30" as="geometry" />
        </mxCell>
        <mxCell id="SL3OJ4g4mQe82jDkw0CZ-77" value="" style="resizable=0;html=1;whiteSpace=wrap;align=right;verticalAlign=bottom;" parent="1" connectable="0" vertex="1">
          <mxGeometry x="1184.9999999999998" y="2050" as="geometry" />
        </mxCell>
        <mxCell id="SL3OJ4g4mQe82jDkw0CZ-78" value="&lt;div&gt;Aggiunge &lt;br&gt;&lt;/div&gt;&lt;div&gt;Offerta&lt;br&gt;&lt;/div&gt;" style="shape=rhombus;perimeter=rhombusPerimeter;whiteSpace=wrap;html=1;align=center;" parent="1" vertex="1">
          <mxGeometry x="1265" y="1925" width="80.51" height="70" as="geometry" />
        </mxCell>
        <mxCell id="SL3OJ4g4mQe82jDkw0CZ-104" value="Turni" style="rounded=0;whiteSpace=wrap;html=1;" parent="1" vertex="1">
          <mxGeometry x="1730" y="1470" width="120" height="60" as="geometry" />
        </mxCell>
        <mxCell id="SL3OJ4g4mQe82jDkw0CZ-105" value="" style="endArrow=oval;html=1;rounded=0;endFill=1;" parent="1" target="SL3OJ4g4mQe82jDkw0CZ-106" edge="1">
          <mxGeometry width="50" height="50" relative="1" as="geometry">
            <mxPoint x="1740" y="1470" as="sourcePoint" />
            <mxPoint x="1740" y="1430" as="targetPoint" />
          </mxGeometry>
        </mxCell>
        <mxCell id="SL3OJ4g4mQe82jDkw0CZ-106" value="&lt;div&gt;&lt;span style=&quot;font-size: 7px;&quot;&gt;ID_Turno&lt;/span&gt;&lt;/div&gt;" style="text;html=1;strokeColor=none;fillColor=none;align=center;verticalAlign=middle;whiteSpace=wrap;rounded=0;" parent="1" vertex="1">
          <mxGeometry x="1710" y="1410" width="60" height="30" as="geometry" />
        </mxCell>
        <mxCell id="SL3OJ4g4mQe82jDkw0CZ-107" value="" style="endArrow=oval;html=1;rounded=0;exitDx=0;exitDy=0;endFill=1;fontColor=#FFFFFF;strokeColor=#000000;labelBackgroundColor=#757575;" parent="1" edge="1">
          <mxGeometry width="50" height="50" relative="1" as="geometry">
            <mxPoint x="1870" y="1440" as="sourcePoint" />
            <mxPoint x="1870" y="1440" as="targetPoint" />
          </mxGeometry>
        </mxCell>
        <mxCell id="SL3OJ4g4mQe82jDkw0CZ-108" value="" style="endArrow=oval;html=1;rounded=0;exitX=0.5;exitY=0;exitDx=0;exitDy=0;endFill=0;" parent="1" target="SL3OJ4g4mQe82jDkw0CZ-109" edge="1">
          <mxGeometry width="50" height="50" relative="1" as="geometry">
            <mxPoint x="1780" y="1470" as="sourcePoint" />
            <mxPoint x="1780" y="1420" as="targetPoint" />
          </mxGeometry>
        </mxCell>
        <mxCell id="SL3OJ4g4mQe82jDkw0CZ-109" value="&lt;font style=&quot;font-size: 7px;&quot;&gt;OrarioInizio&lt;/font&gt;" style="text;html=1;strokeColor=none;fillColor=none;align=center;verticalAlign=middle;whiteSpace=wrap;rounded=0;" parent="1" vertex="1">
          <mxGeometry x="1750" y="1410" width="60" height="30" as="geometry" />
        </mxCell>
        <mxCell id="SL3OJ4g4mQe82jDkw0CZ-110" value="" style="endArrow=oval;html=1;rounded=0;endFill=0;" parent="1" target="SL3OJ4g4mQe82jDkw0CZ-111" edge="1">
          <mxGeometry width="50" height="50" relative="1" as="geometry">
            <mxPoint x="1820" y="1470" as="sourcePoint" />
            <mxPoint x="1820" y="1430" as="targetPoint" />
          </mxGeometry>
        </mxCell>
        <mxCell id="SL3OJ4g4mQe82jDkw0CZ-111" value="&lt;div style=&quot;font-size: 7px;&quot;&gt;OrarioFine&lt;/div&gt;" style="text;html=1;strokeColor=none;fillColor=none;align=center;verticalAlign=middle;whiteSpace=wrap;rounded=0;" parent="1" vertex="1">
          <mxGeometry x="1790" y="1410" width="60" height="30" as="geometry" />
        </mxCell>
        <mxCell id="SL3OJ4g4mQe82jDkw0CZ-115" value="" style="endArrow=none;html=1;rounded=0;exitX=0.75;exitY=1;exitDx=0;exitDy=0;entryX=0.5;entryY=1;entryDx=0;entryDy=0;" parent="1" source="SL3OJ4g4mQe82jDkw0CZ-14" target="SL3OJ4g4mQe82jDkw0CZ-117" edge="1">
          <mxGeometry relative="1" as="geometry">
            <mxPoint x="1860" y="1690" as="sourcePoint" />
            <mxPoint x="2020" y="1690" as="targetPoint" />
            <Array as="points">
              <mxPoint x="1420" y="1710" />
              <mxPoint x="1790" y="1710" />
            </Array>
          </mxGeometry>
        </mxCell>
        <mxCell id="SL3OJ4g4mQe82jDkw0CZ-116" value="1" style="resizable=0;html=1;whiteSpace=wrap;align=right;verticalAlign=bottom;" parent="SL3OJ4g4mQe82jDkw0CZ-115" connectable="0" vertex="1">
          <mxGeometry x="1" relative="1" as="geometry" />
        </mxCell>
        <mxCell id="SL3OJ4g4mQe82jDkw0CZ-117" value="&lt;div&gt;Autista&lt;/div&gt;&lt;div&gt;Avere&lt;/div&gt;&lt;div&gt;Turni&lt;br&gt;&lt;/div&gt;" style="shape=rhombus;perimeter=rhombusPerimeter;whiteSpace=wrap;html=1;align=center;" parent="1" vertex="1">
          <mxGeometry x="1747.5" y="1565" width="85" height="70" as="geometry" />
        </mxCell>
        <mxCell id="SL3OJ4g4mQe82jDkw0CZ-118" value="1,1" style="resizable=0;html=1;whiteSpace=wrap;align=right;verticalAlign=bottom;labelBackgroundColor=default;" parent="1" connectable="0" vertex="1">
          <mxGeometry x="1800" y="1670" as="geometry" />
        </mxCell>
        <mxCell id="SL3OJ4g4mQe82jDkw0CZ-119" value="" style="endArrow=none;html=1;rounded=0;exitX=0.5;exitY=1;exitDx=0;exitDy=0;" parent="1" source="SL3OJ4g4mQe82jDkw0CZ-104" target="SL3OJ4g4mQe82jDkw0CZ-117" edge="1">
          <mxGeometry relative="1" as="geometry">
            <mxPoint x="1430" y="1700" as="sourcePoint" />
            <mxPoint x="2030" y="1700" as="targetPoint" />
          </mxGeometry>
        </mxCell>
        <mxCell id="SL3OJ4g4mQe82jDkw0CZ-120" value="1,N" style="resizable=0;html=1;whiteSpace=wrap;align=right;verticalAlign=bottom;labelBackgroundColor=default;" parent="SL3OJ4g4mQe82jDkw0CZ-119" connectable="0" vertex="1">
          <mxGeometry x="1" relative="1" as="geometry">
            <mxPoint x="10" y="-5" as="offset" />
          </mxGeometry>
        </mxCell>
        <mxCell id="SL3OJ4g4mQe82jDkw0CZ-122" value="Veicoli" style="rounded=0;whiteSpace=wrap;html=1;" parent="1" vertex="1">
          <mxGeometry x="1880.1799999999998" y="1470" width="120" height="60" as="geometry" />
        </mxCell>
        <mxCell id="SL3OJ4g4mQe82jDkw0CZ-123" value="" style="endArrow=oval;html=1;rounded=0;exitX=0.5;exitY=0;exitDx=0;exitDy=0;endFill=0;" parent="1" edge="1">
          <mxGeometry width="50" height="50" relative="1" as="geometry">
            <mxPoint x="1919.6699999999998" y="1470" as="sourcePoint" />
            <mxPoint x="1919.6699999999998" y="1440" as="targetPoint" />
          </mxGeometry>
        </mxCell>
        <mxCell id="SL3OJ4g4mQe82jDkw0CZ-124" value="&lt;font style=&quot;font-size: 7px;&quot;&gt;Marca&lt;/font&gt;" style="text;html=1;strokeColor=none;fillColor=none;align=center;verticalAlign=middle;whiteSpace=wrap;rounded=0;" parent="1" vertex="1">
          <mxGeometry x="1889.6699999999998" y="1410" width="60" height="30" as="geometry" />
        </mxCell>
        <mxCell id="SL3OJ4g4mQe82jDkw0CZ-125" value="" style="endArrow=oval;html=1;rounded=0;endFill=0;" parent="1" target="SL3OJ4g4mQe82jDkw0CZ-126" edge="1">
          <mxGeometry width="50" height="50" relative="1" as="geometry">
            <mxPoint x="1949.49" y="1470" as="sourcePoint" />
            <mxPoint x="1949.6699999999998" y="1430" as="targetPoint" />
          </mxGeometry>
        </mxCell>
        <mxCell id="SL3OJ4g4mQe82jDkw0CZ-126" value="&lt;font style=&quot;font-size: 7px;&quot;&gt;Modello&lt;/font&gt;" style="text;html=1;strokeColor=none;fillColor=none;align=center;verticalAlign=middle;whiteSpace=wrap;rounded=0;" parent="1" vertex="1">
          <mxGeometry x="1919.6699999999998" y="1410" width="60" height="30" as="geometry" />
        </mxCell>
        <mxCell id="SL3OJ4g4mQe82jDkw0CZ-129" value="" style="endArrow=oval;html=1;rounded=0;endFill=1;" parent="1" target="SL3OJ4g4mQe82jDkw0CZ-130" edge="1">
          <mxGeometry width="50" height="50" relative="1" as="geometry">
            <mxPoint x="1890" y="1470" as="sourcePoint" />
            <mxPoint x="1890.1799999999998" y="1430" as="targetPoint" />
          </mxGeometry>
        </mxCell>
        <mxCell id="SL3OJ4g4mQe82jDkw0CZ-130" value="&lt;div style=&quot;font-size: 7px;&quot;&gt;Targa&lt;/div&gt;" style="text;html=1;strokeColor=none;fillColor=none;align=center;verticalAlign=middle;whiteSpace=wrap;rounded=0;" parent="1" vertex="1">
          <mxGeometry x="1859.6699999999998" y="1410" width="60" height="30" as="geometry" />
        </mxCell>
        <mxCell id="SL3OJ4g4mQe82jDkw0CZ-132" value="" style="resizable=0;html=1;whiteSpace=wrap;align=right;verticalAlign=bottom;" parent="1" connectable="0" vertex="1">
          <mxGeometry x="1949.6699999999994" y="1575.04" as="geometry" />
        </mxCell>
        <mxCell id="SL3OJ4g4mQe82jDkw0CZ-134" value="" style="endArrow=oval;html=1;rounded=0;endFill=0;" parent="1" target="SL3OJ4g4mQe82jDkw0CZ-135" edge="1">
          <mxGeometry width="50" height="50" relative="1" as="geometry">
            <mxPoint x="1990" y="1470" as="sourcePoint" />
            <mxPoint x="1990.1799999999998" y="1430" as="targetPoint" />
          </mxGeometry>
        </mxCell>
        <mxCell id="SL3OJ4g4mQe82jDkw0CZ-135" value="&lt;div&gt;&lt;font style=&quot;font-size: 6px;&quot;&gt;Posti_disponibili&lt;/font&gt;&lt;/div&gt;" style="text;html=1;strokeColor=none;fillColor=none;align=center;verticalAlign=middle;whiteSpace=wrap;rounded=0;" parent="1" vertex="1">
          <mxGeometry x="1960.1799999999998" y="1410" width="60" height="30" as="geometry" />
        </mxCell>
        <mxCell id="SL3OJ4g4mQe82jDkw0CZ-160" value="&lt;div&gt;Autista&lt;/div&gt;&lt;div&gt;Guida&lt;/div&gt;&lt;div&gt;Veicolo&lt;br&gt;&lt;/div&gt;" style="shape=rhombus;perimeter=rhombusPerimeter;whiteSpace=wrap;html=1;align=center;" parent="1" vertex="1">
          <mxGeometry x="1899.06" y="1575.04" width="82.24" height="70" as="geometry" />
        </mxCell>
        <mxCell id="SL3OJ4g4mQe82jDkw0CZ-163" value="" style="endArrow=none;html=1;rounded=0;exitX=0.5;exitY=1;exitDx=0;exitDy=0;entryX=0.5;entryY=1;entryDx=0;entryDy=0;" parent="1" source="SL3OJ4g4mQe82jDkw0CZ-14" target="SL3OJ4g4mQe82jDkw0CZ-160" edge="1">
          <mxGeometry relative="1" as="geometry">
            <mxPoint x="1460" y="1750" as="sourcePoint" />
            <mxPoint x="1620" y="1750" as="targetPoint" />
            <Array as="points">
              <mxPoint x="1390" y="1720" />
              <mxPoint x="1940" y="1720" />
            </Array>
          </mxGeometry>
        </mxCell>
        <mxCell id="SL3OJ4g4mQe82jDkw0CZ-164" value="1,1" style="resizable=0;html=1;whiteSpace=wrap;align=right;verticalAlign=bottom;labelBackgroundColor=default;" parent="SL3OJ4g4mQe82jDkw0CZ-163" connectable="0" vertex="1">
          <mxGeometry x="1" relative="1" as="geometry">
            <mxPoint x="9" y="25" as="offset" />
          </mxGeometry>
        </mxCell>
        <mxCell id="SL3OJ4g4mQe82jDkw0CZ-176" value="" style="resizable=0;html=1;whiteSpace=wrap;align=right;verticalAlign=bottom;" parent="1" connectable="0" vertex="1">
          <mxGeometry x="1980.0014560815348" y="1540.0034811778005" as="geometry" />
        </mxCell>
        <mxCell id="SL3OJ4g4mQe82jDkw0CZ-177" value="Assicurazioni" style="rounded=0;whiteSpace=wrap;html=1;" parent="1" vertex="1">
          <mxGeometry x="2032.24" y="1660" width="120" height="60" as="geometry" />
        </mxCell>
        <mxCell id="SL3OJ4g4mQe82jDkw0CZ-178" value="" style="endArrow=oval;html=1;rounded=0;endFill=1;" parent="1" target="SL3OJ4g4mQe82jDkw0CZ-179" edge="1">
          <mxGeometry width="50" height="50" relative="1" as="geometry">
            <mxPoint x="2040" y="1660" as="sourcePoint" />
            <mxPoint x="2040" y="1620" as="targetPoint" />
          </mxGeometry>
        </mxCell>
        <mxCell id="SL3OJ4g4mQe82jDkw0CZ-179" value="&lt;font style=&quot;font-size: 7px;&quot;&gt;ID_Assicurazione&lt;/font&gt;" style="text;html=1;strokeColor=none;fillColor=none;align=center;verticalAlign=middle;whiteSpace=wrap;rounded=0;" parent="1" vertex="1">
          <mxGeometry x="2010" y="1600" width="60" height="30" as="geometry" />
        </mxCell>
        <mxCell id="SL3OJ4g4mQe82jDkw0CZ-180" value="" style="endArrow=oval;html=1;rounded=0;exitX=0.5;exitY=0;exitDx=0;exitDy=0;endFill=0;fontColor=#FFFFFF;strokeColor=#000000;labelBackgroundColor=#757575;" parent="1" target="SL3OJ4g4mQe82jDkw0CZ-181" edge="1">
          <mxGeometry width="50" height="50" relative="1" as="geometry">
            <mxPoint x="2100" y="1660" as="sourcePoint" />
            <mxPoint x="2100" y="1610" as="targetPoint" />
          </mxGeometry>
        </mxCell>
        <mxCell id="SL3OJ4g4mQe82jDkw0CZ-181" value="&lt;font style=&quot;font-size: 7px;&quot;&gt;DataScadenza&lt;/font&gt;" style="text;html=1;strokeColor=none;fillColor=none;align=center;verticalAlign=middle;whiteSpace=wrap;rounded=0;" parent="1" vertex="1">
          <mxGeometry x="2070" y="1600" width="60" height="30" as="geometry" />
        </mxCell>
        <mxCell id="SL3OJ4g4mQe82jDkw0CZ-185" value="" style="endArrow=oval;html=1;rounded=0;exitX=0.5;exitY=0;exitDx=0;exitDy=0;endFill=0;fontColor=#FFFFFF;strokeColor=#000000;labelBackgroundColor=#757575;" parent="1" target="SL3OJ4g4mQe82jDkw0CZ-186" edge="1">
          <mxGeometry width="50" height="50" relative="1" as="geometry">
            <mxPoint x="2140" y="1660" as="sourcePoint" />
            <mxPoint x="2140" y="1610" as="targetPoint" />
          </mxGeometry>
        </mxCell>
        <mxCell id="SL3OJ4g4mQe82jDkw0CZ-186" value="&lt;font style=&quot;font-size: 7px;&quot;&gt;Tipo&lt;/font&gt;" style="text;html=1;strokeColor=none;fillColor=none;align=center;verticalAlign=middle;whiteSpace=wrap;rounded=0;" parent="1" vertex="1">
          <mxGeometry x="2110" y="1600" width="60" height="30" as="geometry" />
        </mxCell>
        <mxCell id="SL3OJ4g4mQe82jDkw0CZ-187" value="" style="endArrow=none;html=1;rounded=0;exitX=0.5;exitY=1;exitDx=0;exitDy=0;entryX=0.5;entryY=0;entryDx=0;entryDy=0;" parent="1" source="SL3OJ4g4mQe82jDkw0CZ-122" target="SL3OJ4g4mQe82jDkw0CZ-160" edge="1">
          <mxGeometry relative="1" as="geometry">
            <mxPoint x="2000" y="1660" as="sourcePoint" />
            <mxPoint x="2160" y="1660" as="targetPoint" />
          </mxGeometry>
        </mxCell>
        <mxCell id="SL3OJ4g4mQe82jDkw0CZ-188" value="1,1" style="resizable=0;html=1;whiteSpace=wrap;align=right;verticalAlign=bottom;labelBackgroundColor=default;" parent="SL3OJ4g4mQe82jDkw0CZ-187" connectable="0" vertex="1">
          <mxGeometry x="1" relative="1" as="geometry">
            <mxPoint x="9" y="-15" as="offset" />
          </mxGeometry>
        </mxCell>
        <mxCell id="SL3OJ4g4mQe82jDkw0CZ-189" value="&lt;div&gt;Veicolo&lt;/div&gt;&lt;div&gt;Possiede Assicurazione&lt;/div&gt;&lt;div&gt;&lt;br&gt;&lt;/div&gt;" style="shape=rhombus;perimeter=rhombusPerimeter;whiteSpace=wrap;html=1;align=center;" parent="1" vertex="1">
          <mxGeometry x="2042.24" y="1456.25" width="115" height="87.5" as="geometry" />
        </mxCell>
        <mxCell id="SL3OJ4g4mQe82jDkw0CZ-262" value="&lt;div&gt;Utenti&lt;/div&gt;" style="rounded=0;whiteSpace=wrap;html=1;" parent="1" vertex="1">
          <mxGeometry x="1245" y="2180" width="120" height="60" as="geometry" />
        </mxCell>
        <mxCell id="SL3OJ4g4mQe82jDkw0CZ-263" value="" style="endArrow=oval;html=1;rounded=0;exitX=0.5;exitY=0;exitDx=0;exitDy=0;endFill=0;" parent="1" target="SL3OJ4g4mQe82jDkw0CZ-264" edge="1">
          <mxGeometry width="50" height="50" relative="1" as="geometry">
            <mxPoint x="1290" y="2180" as="sourcePoint" />
            <mxPoint x="1290" y="2130" as="targetPoint" />
          </mxGeometry>
        </mxCell>
        <mxCell id="SL3OJ4g4mQe82jDkw0CZ-264" value="&lt;font style=&quot;font-size: 7px;&quot;&gt;Nome&lt;/font&gt;" style="text;html=1;strokeColor=none;fillColor=none;align=center;verticalAlign=middle;whiteSpace=wrap;rounded=0;" parent="1" vertex="1">
          <mxGeometry x="1260" y="2120" width="60" height="30" as="geometry" />
        </mxCell>
        <mxCell id="SL3OJ4g4mQe82jDkw0CZ-265" value="" style="endArrow=oval;html=1;rounded=0;endFill=0;" parent="1" target="SL3OJ4g4mQe82jDkw0CZ-266" edge="1">
          <mxGeometry width="50" height="50" relative="1" as="geometry">
            <mxPoint x="1320" y="2180" as="sourcePoint" />
            <mxPoint x="1320" y="2140" as="targetPoint" />
          </mxGeometry>
        </mxCell>
        <mxCell id="SL3OJ4g4mQe82jDkw0CZ-266" value="&lt;div style=&quot;font-size: 7px;&quot;&gt;Cognome&lt;/div&gt;" style="text;html=1;strokeColor=none;fillColor=none;align=center;verticalAlign=middle;whiteSpace=wrap;rounded=0;" parent="1" vertex="1">
          <mxGeometry x="1290" y="2120" width="60" height="30" as="geometry" />
        </mxCell>
        <mxCell id="SL3OJ4g4mQe82jDkw0CZ-267" value="" style="endArrow=oval;html=1;rounded=0;exitX=0.5;exitY=0;exitDx=0;exitDy=0;endFill=0;" parent="1" target="SL3OJ4g4mQe82jDkw0CZ-268" edge="1">
          <mxGeometry width="50" height="50" relative="1" as="geometry">
            <mxPoint x="1350" y="2180" as="sourcePoint" />
            <mxPoint x="1350" y="2130" as="targetPoint" />
          </mxGeometry>
        </mxCell>
        <mxCell id="SL3OJ4g4mQe82jDkw0CZ-268" value="&lt;font style=&quot;font-size: 7px;&quot;&gt;Email&lt;/font&gt;" style="text;html=1;strokeColor=none;fillColor=none;align=center;verticalAlign=middle;whiteSpace=wrap;rounded=0;" parent="1" vertex="1">
          <mxGeometry x="1320" y="2120" width="60" height="30" as="geometry" />
        </mxCell>
        <mxCell id="SL3OJ4g4mQe82jDkw0CZ-269" value="" style="endArrow=none;html=1;rounded=0;exitX=0.417;exitY=0;exitDx=0;exitDy=0;endFill=0;exitPerimeter=0;startArrow=oval;startFill=0;" parent="1" edge="1">
          <mxGeometry width="50" height="50" relative="1" as="geometry">
            <mxPoint x="1350" y="2270" as="sourcePoint" />
            <mxPoint x="1350" y="2240" as="targetPoint" />
          </mxGeometry>
        </mxCell>
        <mxCell id="SL3OJ4g4mQe82jDkw0CZ-271" value="" style="endArrow=oval;html=1;rounded=0;endFill=1;" parent="1" target="SL3OJ4g4mQe82jDkw0CZ-272" edge="1">
          <mxGeometry width="50" height="50" relative="1" as="geometry">
            <mxPoint x="1260" y="2180" as="sourcePoint" />
            <mxPoint x="1260" y="2140" as="targetPoint" />
          </mxGeometry>
        </mxCell>
        <mxCell id="SL3OJ4g4mQe82jDkw0CZ-272" value="&lt;div style=&quot;font-size: 7px;&quot;&gt;ID_Utente&lt;/div&gt;" style="text;html=1;strokeColor=none;fillColor=none;align=center;verticalAlign=middle;whiteSpace=wrap;rounded=0;" parent="1" vertex="1">
          <mxGeometry x="1230" y="2120" width="60" height="30" as="geometry" />
        </mxCell>
        <mxCell id="SL3OJ4g4mQe82jDkw0CZ-285" value="Carta" style="rounded=0;whiteSpace=wrap;html=1;" parent="1" vertex="1">
          <mxGeometry x="1245" y="2340" width="120" height="60" as="geometry" />
        </mxCell>
        <mxCell id="SL3OJ4g4mQe82jDkw0CZ-286" value="" style="endArrow=oval;html=1;rounded=0;endFill=1;" parent="1" target="SL3OJ4g4mQe82jDkw0CZ-287" edge="1">
          <mxGeometry width="50" height="50" relative="1" as="geometry">
            <mxPoint x="1250" y="2340" as="sourcePoint" />
            <mxPoint x="1255" y="2300" as="targetPoint" />
          </mxGeometry>
        </mxCell>
        <mxCell id="SL3OJ4g4mQe82jDkw0CZ-287" value="&lt;font style=&quot;font-size: 7px;&quot;&gt;Numero Carta&lt;br&gt;&lt;/font&gt;" style="text;html=1;strokeColor=none;fillColor=none;align=center;verticalAlign=middle;whiteSpace=wrap;rounded=0;" parent="1" vertex="1">
          <mxGeometry x="1220" y="2280" width="60" height="30" as="geometry" />
        </mxCell>
        <mxCell id="SL3OJ4g4mQe82jDkw0CZ-288" value="" style="endArrow=oval;html=1;rounded=0;endFill=0;fontColor=#FFFFFF;strokeColor=#000000;labelBackgroundColor=#757575;" parent="1" target="SL3OJ4g4mQe82jDkw0CZ-289" edge="1">
          <mxGeometry width="50" height="50" relative="1" as="geometry">
            <mxPoint x="1350" y="2340" as="sourcePoint" />
            <mxPoint x="1350" y="2290" as="targetPoint" />
          </mxGeometry>
        </mxCell>
        <mxCell id="SL3OJ4g4mQe82jDkw0CZ-289" value="&lt;span style=&quot;font-size: 7px;&quot;&gt;CVV&lt;/span&gt;" style="text;html=1;strokeColor=none;fillColor=none;align=center;verticalAlign=middle;whiteSpace=wrap;rounded=0;" parent="1" vertex="1">
          <mxGeometry x="1320" y="2280" width="60" height="30" as="geometry" />
        </mxCell>
        <mxCell id="SL3OJ4g4mQe82jDkw0CZ-290" value="" style="endArrow=oval;html=1;rounded=0;exitX=0.5;exitY=0;exitDx=0;exitDy=0;endFill=0;" parent="1" edge="1">
          <mxGeometry width="50" height="50" relative="1" as="geometry">
            <mxPoint x="1305" y="2340" as="sourcePoint" />
            <mxPoint x="1305" y="2310" as="targetPoint" />
          </mxGeometry>
        </mxCell>
        <mxCell id="SL3OJ4g4mQe82jDkw0CZ-291" value="&lt;font style=&quot;font-size: 7px;&quot;&gt;Data Scadenza&amp;nbsp;&lt;/font&gt;" style="text;html=1;strokeColor=none;fillColor=none;align=center;verticalAlign=middle;whiteSpace=wrap;rounded=0;" parent="1" vertex="1">
          <mxGeometry x="1275" y="2280" width="60" height="30" as="geometry" />
        </mxCell>
        <mxCell id="SL3OJ4g4mQe82jDkw0CZ-295" value="&lt;div&gt;Utente&lt;/div&gt;&lt;div&gt;Possiede&lt;/div&gt;&lt;div&gt;Carta&lt;br&gt;&lt;/div&gt;" style="shape=rhombus;perimeter=rhombusPerimeter;whiteSpace=wrap;html=1;align=center;" parent="1" vertex="1">
          <mxGeometry x="1120.51" y="2260" width="89.49" height="70" as="geometry" />
        </mxCell>
        <mxCell id="SL3OJ4g4mQe82jDkw0CZ-296" value="" style="endArrow=none;html=1;rounded=0;entryX=0.5;entryY=1;entryDx=0;entryDy=0;exitX=0;exitY=0.25;exitDx=0;exitDy=0;" parent="1" source="SL3OJ4g4mQe82jDkw0CZ-285" target="SL3OJ4g4mQe82jDkw0CZ-295" edge="1">
          <mxGeometry relative="1" as="geometry">
            <mxPoint x="1060" y="2340" as="sourcePoint" />
            <mxPoint x="1220" y="2340" as="targetPoint" />
            <Array as="points">
              <mxPoint x="1165" y="2355" />
            </Array>
          </mxGeometry>
        </mxCell>
        <mxCell id="SL3OJ4g4mQe82jDkw0CZ-297" value="1,1" style="resizable=0;html=1;whiteSpace=wrap;align=right;verticalAlign=bottom;labelBackgroundColor=default;" parent="SL3OJ4g4mQe82jDkw0CZ-296" connectable="0" vertex="1">
          <mxGeometry x="1" relative="1" as="geometry">
            <mxPoint x="15" y="20" as="offset" />
          </mxGeometry>
        </mxCell>
        <mxCell id="SL3OJ4g4mQe82jDkw0CZ-298" value="" style="endArrow=none;html=1;rounded=0;entryX=0.5;entryY=0;entryDx=0;entryDy=0;exitX=0;exitY=0.75;exitDx=0;exitDy=0;" parent="1" source="SL3OJ4g4mQe82jDkw0CZ-262" target="SL3OJ4g4mQe82jDkw0CZ-295" edge="1">
          <mxGeometry relative="1" as="geometry">
            <mxPoint x="1050" y="2240" as="sourcePoint" />
            <mxPoint x="1210" y="2240" as="targetPoint" />
            <Array as="points">
              <mxPoint x="1165" y="2225" />
            </Array>
          </mxGeometry>
        </mxCell>
        <mxCell id="SL3OJ4g4mQe82jDkw0CZ-299" value="1,N" style="resizable=0;html=1;whiteSpace=wrap;align=right;verticalAlign=bottom;labelBackgroundColor=default;" parent="SL3OJ4g4mQe82jDkw0CZ-298" connectable="0" vertex="1">
          <mxGeometry x="1" relative="1" as="geometry">
            <mxPoint x="15" y="-10" as="offset" />
          </mxGeometry>
        </mxCell>
        <mxCell id="SL3OJ4g4mQe82jDkw0CZ-394" style="edgeStyle=orthogonalEdgeStyle;rounded=0;orthogonalLoop=1;jettySize=auto;html=1;entryX=1;entryY=0.25;entryDx=0;entryDy=0;strokeColor=#031CFF;" parent="1" source="SL3OJ4g4mQe82jDkw0CZ-319" target="Oc1ZdkjXdi-IqZoQddms-36" edge="1">
          <mxGeometry relative="1" as="geometry">
            <mxPoint x="1682.7600000000002" y="1959.4500000000003" as="targetPoint" />
          </mxGeometry>
        </mxCell>
        <mxCell id="SL3OJ4g4mQe82jDkw0CZ-319" value="Tratte Completate" style="rounded=0;whiteSpace=wrap;html=1;" parent="1" vertex="1">
          <mxGeometry x="1922.24" y="1989.4499999999998" width="120" height="60" as="geometry" />
        </mxCell>
        <mxCell id="SL3OJ4g4mQe82jDkw0CZ-320" value="" style="endArrow=oval;html=1;rounded=0;endFill=1;" parent="1" target="SL3OJ4g4mQe82jDkw0CZ-321" edge="1">
          <mxGeometry width="50" height="50" relative="1" as="geometry">
            <mxPoint x="1932" y="1990" as="sourcePoint" />
            <mxPoint x="1932.24" y="1949.7299999999998" as="targetPoint" />
          </mxGeometry>
        </mxCell>
        <mxCell id="SL3OJ4g4mQe82jDkw0CZ-321" value="&lt;font style=&quot;font-size: 7px;&quot;&gt;ID_TrattaC&lt;br&gt;&lt;/font&gt;" style="text;html=1;strokeColor=none;fillColor=none;align=center;verticalAlign=middle;whiteSpace=wrap;rounded=0;" parent="1" vertex="1">
          <mxGeometry x="1902.24" y="1929.7299999999998" width="60" height="30" as="geometry" />
        </mxCell>
        <mxCell id="SL3OJ4g4mQe82jDkw0CZ-325" value="" style="endArrow=oval;html=1;rounded=0;endFill=0;fontColor=#FFFFFF;strokeColor=#000000;labelBackgroundColor=#757575;" parent="1" target="SL3OJ4g4mQe82jDkw0CZ-326" edge="1">
          <mxGeometry width="50" height="50" relative="1" as="geometry">
            <mxPoint x="2010" y="1989.45" as="sourcePoint" />
            <mxPoint x="1992.24" y="1938.8999999999999" as="targetPoint" />
          </mxGeometry>
        </mxCell>
        <mxCell id="SL3OJ4g4mQe82jDkw0CZ-326" value="&lt;font style=&quot;font-size: 7px;&quot;&gt;Costo&lt;/font&gt;" style="text;html=1;strokeColor=none;fillColor=none;align=center;verticalAlign=middle;whiteSpace=wrap;rounded=0;" parent="1" vertex="1">
          <mxGeometry x="1979.67" y="1928.8999999999999" width="60" height="30" as="geometry" />
        </mxCell>
        <mxCell id="SL3OJ4g4mQe82jDkw0CZ-416" style="edgeStyle=orthogonalEdgeStyle;rounded=0;orthogonalLoop=1;jettySize=auto;html=1;entryX=0.5;entryY=1;entryDx=0;entryDy=0;strokeColor=#031CFF;" parent="1" source="SL3OJ4g4mQe82jDkw0CZ-327" target="Oc1ZdkjXdi-IqZoQddms-36" edge="1">
          <mxGeometry relative="1" as="geometry">
            <mxPoint x="1668.1153390593277" y="1980.6632034355966" as="targetPoint" />
            <Array as="points">
              <mxPoint x="1850" y="2179" />
              <mxPoint x="1645" y="2180" />
            </Array>
          </mxGeometry>
        </mxCell>
        <mxCell id="SL3OJ4g4mQe82jDkw0CZ-327" value="Tratte Rifiutate" style="rounded=0;whiteSpace=wrap;html=1;" parent="1" vertex="1">
          <mxGeometry x="1922.24" y="2149.45" width="120" height="60" as="geometry" />
        </mxCell>
        <mxCell id="SL3OJ4g4mQe82jDkw0CZ-328" value="" style="endArrow=oval;html=1;rounded=0;endFill=1;" parent="1" target="SL3OJ4g4mQe82jDkw0CZ-329" edge="1">
          <mxGeometry width="50" height="50" relative="1" as="geometry">
            <mxPoint x="1928.88" y="2149.45" as="sourcePoint" />
            <mxPoint x="1931.1200000000001" y="2108.8999999999996" as="targetPoint" />
          </mxGeometry>
        </mxCell>
        <mxCell id="SL3OJ4g4mQe82jDkw0CZ-329" value="&lt;font style=&quot;font-size: 7px;&quot;&gt;ID_TrattaR&lt;/font&gt;" style="text;html=1;strokeColor=none;fillColor=none;align=center;verticalAlign=middle;whiteSpace=wrap;rounded=0;" parent="1" vertex="1">
          <mxGeometry x="1899.0600000000002" y="2088.8999999999996" width="60" height="30" as="geometry" />
        </mxCell>
        <mxCell id="SL3OJ4g4mQe82jDkw0CZ-333" value="" style="endArrow=oval;html=1;rounded=0;endFill=0;fontColor=#FFFFFF;strokeColor=#000000;labelBackgroundColor=#757575;" parent="1" target="SL3OJ4g4mQe82jDkw0CZ-334" edge="1">
          <mxGeometry width="50" height="50" relative="1" as="geometry">
            <mxPoint x="1992" y="2149.45" as="sourcePoint" />
            <mxPoint x="1992.24" y="2098.8999999999996" as="targetPoint" />
          </mxGeometry>
        </mxCell>
        <mxCell id="SL3OJ4g4mQe82jDkw0CZ-334" value="&lt;font style=&quot;font-size: 7px;&quot;&gt;Motivazione&lt;/font&gt;" style="text;html=1;strokeColor=none;fillColor=none;align=center;verticalAlign=middle;whiteSpace=wrap;rounded=0;" parent="1" vertex="1">
          <mxGeometry x="1962.24" y="2088.8999999999996" width="60" height="30" as="geometry" />
        </mxCell>
        <mxCell id="SL3OJ4g4mQe82jDkw0CZ-338" value="" style="endArrow=none;html=1;rounded=0;exitX=1;exitY=0.75;exitDx=0;exitDy=0;entryX=0.5;entryY=0;entryDx=0;entryDy=0;" parent="1" source="SL3OJ4g4mQe82jDkw0CZ-22" target="SL3OJ4g4mQe82jDkw0CZ-78" edge="1">
          <mxGeometry relative="1" as="geometry">
            <mxPoint x="1280" y="1860" as="sourcePoint" />
            <mxPoint x="1320" y="1920" as="targetPoint" />
            <Array as="points">
              <mxPoint x="1305" y="1885" />
            </Array>
          </mxGeometry>
        </mxCell>
        <mxCell id="SL3OJ4g4mQe82jDkw0CZ-339" value="1,N" style="resizable=0;html=1;whiteSpace=wrap;align=right;verticalAlign=bottom;labelBackgroundColor=default;" parent="SL3OJ4g4mQe82jDkw0CZ-338" connectable="0" vertex="1">
          <mxGeometry x="1" relative="1" as="geometry">
            <mxPoint x="-10" y="-30" as="offset" />
          </mxGeometry>
        </mxCell>
        <mxCell id="SL3OJ4g4mQe82jDkw0CZ-340" value="" style="endArrow=none;html=1;rounded=0;exitX=1;exitY=0.25;exitDx=0;exitDy=0;entryX=0.5;entryY=1;entryDx=0;entryDy=0;" parent="1" source="SL3OJ4g4mQe82jDkw0CZ-66" target="SL3OJ4g4mQe82jDkw0CZ-78" edge="1">
          <mxGeometry relative="1" as="geometry">
            <mxPoint x="1210" y="2000" as="sourcePoint" />
            <mxPoint x="1310" y="2010" as="targetPoint" />
            <Array as="points">
              <mxPoint x="1305" y="2035" />
            </Array>
          </mxGeometry>
        </mxCell>
        <mxCell id="SL3OJ4g4mQe82jDkw0CZ-341" value="1,1" style="resizable=0;html=1;whiteSpace=wrap;align=right;verticalAlign=bottom;labelBackgroundColor=default;" parent="SL3OJ4g4mQe82jDkw0CZ-340" connectable="0" vertex="1">
          <mxGeometry x="1" relative="1" as="geometry">
            <mxPoint x="10" y="35" as="offset" />
          </mxGeometry>
        </mxCell>
        <mxCell id="SL3OJ4g4mQe82jDkw0CZ-342" value="&lt;div&gt;Utente&lt;/div&gt;&lt;div&gt;Ha&lt;/div&gt;&lt;div&gt;Offerta&lt;br&gt;&lt;/div&gt;" style="shape=rhombus;perimeter=rhombusPerimeter;whiteSpace=wrap;html=1;align=center;" parent="1" vertex="1">
          <mxGeometry x="1142.5" y="2100" width="95" height="70" as="geometry" />
        </mxCell>
        <mxCell id="SL3OJ4g4mQe82jDkw0CZ-345" value="" style="endArrow=none;html=1;rounded=0;exitX=0;exitY=0.25;exitDx=0;exitDy=0;entryX=0.5;entryY=1;entryDx=0;entryDy=0;" parent="1" source="SL3OJ4g4mQe82jDkw0CZ-262" target="SL3OJ4g4mQe82jDkw0CZ-342" edge="1">
          <mxGeometry relative="1" as="geometry">
            <mxPoint x="1070" y="2190" as="sourcePoint" />
            <mxPoint x="1230" y="2190" as="targetPoint" />
            <Array as="points">
              <mxPoint x="1190" y="2195" />
            </Array>
          </mxGeometry>
        </mxCell>
        <mxCell id="SL3OJ4g4mQe82jDkw0CZ-346" value="1,1" style="resizable=0;html=1;whiteSpace=wrap;align=right;verticalAlign=bottom;labelBackgroundColor=default;" parent="SL3OJ4g4mQe82jDkw0CZ-345" connectable="0" vertex="1">
          <mxGeometry x="1" relative="1" as="geometry">
            <mxPoint x="10" y="20" as="offset" />
          </mxGeometry>
        </mxCell>
        <mxCell id="SL3OJ4g4mQe82jDkw0CZ-351" value="" style="endArrow=none;html=1;rounded=0;entryX=0.5;entryY=0;entryDx=0;entryDy=0;exitX=0.5;exitY=1;exitDx=0;exitDy=0;" parent="1" source="SL3OJ4g4mQe82jDkw0CZ-66" target="SL3OJ4g4mQe82jDkw0CZ-342" edge="1">
          <mxGeometry relative="1" as="geometry">
            <mxPoint x="1050" y="2110" as="sourcePoint" />
            <mxPoint x="1210" y="2110" as="targetPoint" />
          </mxGeometry>
        </mxCell>
        <mxCell id="SL3OJ4g4mQe82jDkw0CZ-352" value="1,N" style="resizable=0;html=1;whiteSpace=wrap;align=right;verticalAlign=bottom;labelBackgroundColor=default;" parent="SL3OJ4g4mQe82jDkw0CZ-351" connectable="0" vertex="1">
          <mxGeometry x="1" relative="1" as="geometry">
            <mxPoint x="10" as="offset" />
          </mxGeometry>
        </mxCell>
        <mxCell id="SL3OJ4g4mQe82jDkw0CZ-353" value="Asseganto a" style="shape=rhombus;perimeter=rhombusPerimeter;whiteSpace=wrap;html=1;align=center;" parent="1" vertex="1">
          <mxGeometry x="1390.19" y="1870" width="80" height="50" as="geometry" />
        </mxCell>
        <mxCell id="SL3OJ4g4mQe82jDkw0CZ-354" value="" style="endArrow=none;html=1;rounded=0;exitX=0.25;exitY=1;exitDx=0;exitDy=0;entryX=0;entryY=0.5;entryDx=0;entryDy=0;" parent="1" source="SL3OJ4g4mQe82jDkw0CZ-14" target="SL3OJ4g4mQe82jDkw0CZ-353" edge="1">
          <mxGeometry relative="1" as="geometry">
            <mxPoint x="1340" y="1810" as="sourcePoint" />
            <mxPoint x="1500" y="1810" as="targetPoint" />
            <Array as="points">
              <mxPoint x="1360" y="1895" />
            </Array>
          </mxGeometry>
        </mxCell>
        <mxCell id="SL3OJ4g4mQe82jDkw0CZ-355" value="1,N" style="resizable=0;html=1;whiteSpace=wrap;align=right;verticalAlign=bottom;labelBackgroundColor=default;" parent="SL3OJ4g4mQe82jDkw0CZ-354" connectable="0" vertex="1">
          <mxGeometry x="1" relative="1" as="geometry">
            <mxPoint x="-20" y="-25" as="offset" />
          </mxGeometry>
        </mxCell>
        <mxCell id="SL3OJ4g4mQe82jDkw0CZ-358" value="&lt;div&gt;&lt;br&gt;&lt;/div&gt;&lt;div&gt;Effettua&lt;/div&gt;&lt;div&gt;Prenotazione&lt;/div&gt;&lt;div&gt;&lt;br&gt;&lt;/div&gt;" style="shape=rhombus;perimeter=rhombusPerimeter;whiteSpace=wrap;html=1;align=center;" parent="1" vertex="1">
          <mxGeometry x="1370" y="2017.5" width="90" height="65" as="geometry" />
        </mxCell>
        <mxCell id="SL3OJ4g4mQe82jDkw0CZ-360" value="" style="endArrow=none;html=1;rounded=0;exitX=1;exitY=0.25;exitDx=0;exitDy=0;entryX=0.5;entryY=1;entryDx=0;entryDy=0;" parent="1" source="SL3OJ4g4mQe82jDkw0CZ-262" target="SL3OJ4g4mQe82jDkw0CZ-358" edge="1">
          <mxGeometry relative="1" as="geometry">
            <mxPoint x="1390" y="2220" as="sourcePoint" />
            <mxPoint x="1550" y="2220" as="targetPoint" />
            <Array as="points">
              <mxPoint x="1415" y="2195" />
            </Array>
          </mxGeometry>
        </mxCell>
        <mxCell id="SL3OJ4g4mQe82jDkw0CZ-361" value="1,N" style="resizable=0;html=1;whiteSpace=wrap;align=right;verticalAlign=bottom;labelBackgroundColor=default;" parent="SL3OJ4g4mQe82jDkw0CZ-360" connectable="0" vertex="1">
          <mxGeometry x="1" relative="1" as="geometry">
            <mxPoint x="15" y="37" as="offset" />
          </mxGeometry>
        </mxCell>
        <mxCell id="SL3OJ4g4mQe82jDkw0CZ-362" value="" style="endArrow=none;html=1;rounded=0;entryX=1;entryY=0.5;entryDx=0;entryDy=0;exitX=0;exitY=0.75;exitDx=0;exitDy=0;" parent="1" source="Oc1ZdkjXdi-IqZoQddms-36" target="SL3OJ4g4mQe82jDkw0CZ-358" edge="1">
          <mxGeometry relative="1" as="geometry">
            <mxPoint x="1582.7600000000002" y="1959.4500000000003" as="sourcePoint" />
            <mxPoint x="1610" y="2080" as="targetPoint" />
            <Array as="points">
              <mxPoint x="1525" y="1910" />
              <mxPoint x="1525" y="1960" />
              <mxPoint x="1525" y="2050" />
            </Array>
          </mxGeometry>
        </mxCell>
        <mxCell id="SL3OJ4g4mQe82jDkw0CZ-363" value="1,1" style="resizable=0;html=1;whiteSpace=wrap;align=right;verticalAlign=bottom;labelBackgroundColor=default;" parent="SL3OJ4g4mQe82jDkw0CZ-362" connectable="0" vertex="1">
          <mxGeometry x="1" relative="1" as="geometry">
            <mxPoint x="40" y="9" as="offset" />
          </mxGeometry>
        </mxCell>
        <mxCell id="SL3OJ4g4mQe82jDkw0CZ-364" value="Feedback" style="rounded=0;whiteSpace=wrap;html=1;" parent="1" vertex="1">
          <mxGeometry x="1922.24" y="1830.56" width="120" height="60" as="geometry" />
        </mxCell>
        <mxCell id="SL3OJ4g4mQe82jDkw0CZ-365" value="" style="endArrow=oval;html=1;rounded=0;exitX=0.5;exitY=0;exitDx=0;exitDy=0;endFill=0;" parent="1" target="SL3OJ4g4mQe82jDkw0CZ-366" edge="1">
          <mxGeometry width="50" height="50" relative="1" as="geometry">
            <mxPoint x="1979.67" y="1830.56" as="sourcePoint" />
            <mxPoint x="1979.67" y="1780.56" as="targetPoint" />
          </mxGeometry>
        </mxCell>
        <mxCell id="SL3OJ4g4mQe82jDkw0CZ-366" value="&lt;font style=&quot;font-size: 7px;&quot;&gt;Stelle_Utente&lt;/font&gt;" style="text;html=1;strokeColor=none;fillColor=none;align=center;verticalAlign=middle;whiteSpace=wrap;rounded=0;" parent="1" vertex="1">
          <mxGeometry x="1949.67" y="1770.56" width="60" height="30" as="geometry" />
        </mxCell>
        <mxCell id="SL3OJ4g4mQe82jDkw0CZ-371" value="" style="endArrow=oval;html=1;rounded=0;endFill=1;exitX=0.067;exitY=0.005;exitDx=0;exitDy=0;exitPerimeter=0;" parent="1" source="SL3OJ4g4mQe82jDkw0CZ-364" target="SL3OJ4g4mQe82jDkw0CZ-372" edge="1">
          <mxGeometry width="50" height="50" relative="1" as="geometry">
            <mxPoint x="1929.94" y="1829.45" as="sourcePoint" />
            <mxPoint x="1930.18" y="1790.01" as="targetPoint" />
          </mxGeometry>
        </mxCell>
        <mxCell id="SL3OJ4g4mQe82jDkw0CZ-372" value="&lt;font style=&quot;font-size: 7px;&quot;&gt;ID_Feedback&lt;/font&gt;" style="text;html=1;strokeColor=none;fillColor=none;align=center;verticalAlign=middle;whiteSpace=wrap;rounded=0;" parent="1" vertex="1">
          <mxGeometry x="1900.18" y="1770.01" width="60" height="30" as="geometry" />
        </mxCell>
        <mxCell id="SL3OJ4g4mQe82jDkw0CZ-396" value="&lt;div&gt;Tratta&lt;/div&gt;&lt;div&gt;Avere&lt;/div&gt;&lt;div&gt;Feedback&lt;br&gt;&lt;/div&gt;" style="shape=rhombus;perimeter=rhombusPerimeter;whiteSpace=wrap;html=1;align=center;" parent="1" vertex="1">
          <mxGeometry x="2070" y="1900.56" width="90.3" height="80.55" as="geometry" />
        </mxCell>
        <mxCell id="SL3OJ4g4mQe82jDkw0CZ-397" value="" style="endArrow=none;html=1;rounded=0;exitX=1;exitY=0.25;exitDx=0;exitDy=0;entryX=0.5;entryY=1;entryDx=0;entryDy=0;" parent="1" source="SL3OJ4g4mQe82jDkw0CZ-319" target="SL3OJ4g4mQe82jDkw0CZ-396" edge="1">
          <mxGeometry relative="1" as="geometry">
            <mxPoint x="2070" y="2009.4499999999998" as="sourcePoint" />
            <mxPoint x="2230" y="2009.4499999999998" as="targetPoint" />
            <Array as="points">
              <mxPoint x="2115" y="2004.4499999999998" />
            </Array>
          </mxGeometry>
        </mxCell>
        <mxCell id="SL3OJ4g4mQe82jDkw0CZ-398" value="0,1" style="resizable=0;html=1;whiteSpace=wrap;align=right;verticalAlign=bottom;labelBackgroundColor=default;" parent="SL3OJ4g4mQe82jDkw0CZ-397" connectable="0" vertex="1">
          <mxGeometry x="1" relative="1" as="geometry">
            <mxPoint x="-15" y="36" as="offset" />
          </mxGeometry>
        </mxCell>
        <mxCell id="SL3OJ4g4mQe82jDkw0CZ-399" value="" style="endArrow=none;html=1;rounded=0;exitX=1;exitY=0.75;exitDx=0;exitDy=0;entryX=0.5;entryY=0;entryDx=0;entryDy=0;" parent="1" source="SL3OJ4g4mQe82jDkw0CZ-364" target="SL3OJ4g4mQe82jDkw0CZ-396" edge="1">
          <mxGeometry relative="1" as="geometry">
            <mxPoint x="2080" y="1869.4499999999998" as="sourcePoint" />
            <mxPoint x="2240" y="1869.4499999999998" as="targetPoint" />
            <Array as="points">
              <mxPoint x="2115" y="1875.4499999999998" />
            </Array>
          </mxGeometry>
        </mxCell>
        <mxCell id="SL3OJ4g4mQe82jDkw0CZ-400" value="1,1" style="resizable=0;html=1;whiteSpace=wrap;align=right;verticalAlign=bottom;labelBackgroundColor=default;" parent="SL3OJ4g4mQe82jDkw0CZ-399" connectable="0" vertex="1">
          <mxGeometry x="1" relative="1" as="geometry">
            <mxPoint x="15" y="-1" as="offset" />
          </mxGeometry>
        </mxCell>
        <mxCell id="SL3OJ4g4mQe82jDkw0CZ-417" value="" style="endArrow=none;html=1;rounded=0;entryX=1;entryY=0.5;entryDx=0;entryDy=0;exitX=0.002;exitY=0.374;exitDx=0;exitDy=0;exitPerimeter=0;" parent="1" source="Oc1ZdkjXdi-IqZoQddms-36" target="SL3OJ4g4mQe82jDkw0CZ-353" edge="1">
          <mxGeometry relative="1" as="geometry">
            <mxPoint x="1585.6600000000003" y="1949.9100000000003" as="sourcePoint" />
            <mxPoint x="1570" y="1990" as="targetPoint" />
          </mxGeometry>
        </mxCell>
        <mxCell id="SL3OJ4g4mQe82jDkw0CZ-418" value="1,1" style="resizable=0;html=1;whiteSpace=wrap;align=right;verticalAlign=bottom;labelBackgroundColor=default;" parent="SL3OJ4g4mQe82jDkw0CZ-417" connectable="0" vertex="1">
          <mxGeometry x="1" relative="1" as="geometry">
            <mxPoint x="54" y="6" as="offset" />
          </mxGeometry>
        </mxCell>
        <mxCell id="SL3OJ4g4mQe82jDkw0CZ-426" value="&lt;div&gt;Carta&lt;/div&gt;&lt;div&gt;Paga&lt;/div&gt;&lt;div&gt;Tratta&lt;br&gt;&lt;/div&gt;" style="shape=rhombus;perimeter=rhombusPerimeter;whiteSpace=wrap;html=1;align=center;" parent="1" vertex="1">
          <mxGeometry x="1710" y="2039.4499999999998" width="80" height="60.55" as="geometry" />
        </mxCell>
        <mxCell id="SL3OJ4g4mQe82jDkw0CZ-427" value="" style="endArrow=none;html=1;rounded=0;entryX=0;entryY=0.5;entryDx=0;entryDy=0;exitX=1;exitY=0.25;exitDx=0;exitDy=0;" parent="1" source="SL3OJ4g4mQe82jDkw0CZ-285" target="SL3OJ4g4mQe82jDkw0CZ-426" edge="1">
          <mxGeometry relative="1" as="geometry">
            <mxPoint x="1470" y="2330" as="sourcePoint" />
            <mxPoint x="1630" y="2330" as="targetPoint" />
            <Array as="points">
              <mxPoint x="1525" y="2355" />
              <mxPoint x="1525" y="2070" />
            </Array>
          </mxGeometry>
        </mxCell>
        <mxCell id="SL3OJ4g4mQe82jDkw0CZ-428" value="1,N" style="resizable=0;html=1;whiteSpace=wrap;align=right;verticalAlign=bottom;labelBackgroundColor=default;" parent="SL3OJ4g4mQe82jDkw0CZ-427" connectable="0" vertex="1">
          <mxGeometry x="1" relative="1" as="geometry">
            <mxPoint x="-75" y="10" as="offset" />
          </mxGeometry>
        </mxCell>
        <mxCell id="SL3OJ4g4mQe82jDkw0CZ-429" value="" style="endArrow=none;html=1;rounded=0;entryX=0;entryY=0.75;entryDx=0;entryDy=0;exitX=1;exitY=0.5;exitDx=0;exitDy=0;" parent="1" source="SL3OJ4g4mQe82jDkw0CZ-426" target="SL3OJ4g4mQe82jDkw0CZ-319" edge="1">
          <mxGeometry relative="1" as="geometry">
            <mxPoint x="1680" y="2110" as="sourcePoint" />
            <mxPoint x="1840" y="2110" as="targetPoint" />
            <Array as="points">
              <mxPoint x="1870" y="2070" />
              <mxPoint x="1870" y="2034" />
            </Array>
          </mxGeometry>
        </mxCell>
        <mxCell id="SL3OJ4g4mQe82jDkw0CZ-430" value="1,1" style="resizable=0;html=1;whiteSpace=wrap;align=right;verticalAlign=bottom;labelBackgroundColor=default;" parent="SL3OJ4g4mQe82jDkw0CZ-429" connectable="0" vertex="1">
          <mxGeometry x="1" relative="1" as="geometry">
            <mxPoint x="-90" y="46" as="offset" />
          </mxGeometry>
        </mxCell>
        <mxCell id="SL3OJ4g4mQe82jDkw0CZ-431" value="" style="endArrow=none;html=1;rounded=0;entryX=0;entryY=0.5;entryDx=0;entryDy=0;exitX=1;exitY=0.5;exitDx=0;exitDy=0;" parent="1" source="SL3OJ4g4mQe82jDkw0CZ-122" target="SL3OJ4g4mQe82jDkw0CZ-189" edge="1">
          <mxGeometry relative="1" as="geometry">
            <mxPoint x="2010" y="1540" as="sourcePoint" />
            <mxPoint x="2170" y="1540" as="targetPoint" />
          </mxGeometry>
        </mxCell>
        <mxCell id="SL3OJ4g4mQe82jDkw0CZ-432" value="1,1" style="resizable=0;html=1;whiteSpace=wrap;align=right;verticalAlign=bottom;labelBackgroundColor=default;" parent="SL3OJ4g4mQe82jDkw0CZ-431" connectable="0" vertex="1">
          <mxGeometry x="1" relative="1" as="geometry">
            <mxPoint x="-10" y="10" as="offset" />
          </mxGeometry>
        </mxCell>
        <mxCell id="mZHnx6sIpGUkLj57OKLw-1" value="" style="endArrow=none;html=1;rounded=0;entryX=1;entryY=0.5;entryDx=0;entryDy=0;exitX=1;exitY=0.25;exitDx=0;exitDy=0;" parent="1" source="SL3OJ4g4mQe82jDkw0CZ-177" target="SL3OJ4g4mQe82jDkw0CZ-189" edge="1">
          <mxGeometry relative="1" as="geometry">
            <mxPoint x="2010" y="1510" as="sourcePoint" />
            <mxPoint x="2095" y="1510" as="targetPoint" />
            <Array as="points">
              <mxPoint x="2170" y="1675" />
              <mxPoint x="2170" y="1500" />
            </Array>
          </mxGeometry>
        </mxCell>
        <mxCell id="mZHnx6sIpGUkLj57OKLw-2" value="1,1" style="resizable=0;html=1;whiteSpace=wrap;align=right;verticalAlign=bottom;labelBackgroundColor=default;" parent="mZHnx6sIpGUkLj57OKLw-1" connectable="0" vertex="1">
          <mxGeometry x="1" relative="1" as="geometry">
            <mxPoint x="23" y="51" as="offset" />
          </mxGeometry>
        </mxCell>
        <mxCell id="mZHnx6sIpGUkLj57OKLw-3" value="" style="endArrow=oval;html=1;rounded=0;exitX=0.5;exitY=0;exitDx=0;exitDy=0;endFill=0;fontColor=#FFFFFF;strokeColor=#000000;labelBackgroundColor=#757575;" parent="1" target="mZHnx6sIpGUkLj57OKLw-4" edge="1">
          <mxGeometry width="50" height="50" relative="1" as="geometry">
            <mxPoint x="1220" y="1839.45" as="sourcePoint" />
            <mxPoint x="1220" y="1789.45" as="targetPoint" />
          </mxGeometry>
        </mxCell>
        <mxCell id="mZHnx6sIpGUkLj57OKLw-4" value="&lt;font style=&quot;font-size: 7px;&quot;&gt;Ruolo&lt;/font&gt;" style="text;html=1;strokeColor=none;fillColor=none;align=center;verticalAlign=middle;whiteSpace=wrap;rounded=0;" parent="1" vertex="1">
          <mxGeometry x="1190" y="1779.45" width="60" height="30" as="geometry" />
        </mxCell>
        <mxCell id="mZHnx6sIpGUkLj57OKLw-5" value="" style="endArrow=oval;html=1;rounded=0;exitX=0.5;exitY=0;exitDx=0;exitDy=0;endFill=0;" parent="1" target="mZHnx6sIpGUkLj57OKLw-6" edge="1">
          <mxGeometry width="50" height="50" relative="1" as="geometry">
            <mxPoint x="1430" y="1630" as="sourcePoint" />
            <mxPoint x="1430" y="1580" as="targetPoint" />
          </mxGeometry>
        </mxCell>
        <mxCell id="mZHnx6sIpGUkLj57OKLw-6" value="&lt;font style=&quot;font-size: 7px;&quot;&gt;Stipendio&lt;/font&gt;" style="text;html=1;strokeColor=none;fillColor=none;align=center;verticalAlign=middle;whiteSpace=wrap;rounded=0;" parent="1" vertex="1">
          <mxGeometry x="1400" y="1570" width="60" height="30" as="geometry" />
        </mxCell>
        <mxCell id="Oc1ZdkjXdi-IqZoQddms-6" value="&lt;font style=&quot;font-size: 7px;&quot;&gt;PSW&lt;/font&gt;" style="text;html=1;strokeColor=none;fillColor=none;align=center;verticalAlign=middle;whiteSpace=wrap;rounded=0;" parent="1" vertex="1">
          <mxGeometry x="1320" y="2270" width="60" height="20" as="geometry" />
        </mxCell>
        <mxCell id="Oc1ZdkjXdi-IqZoQddms-9" value="Personale" style="shape=ext;margin=3;double=1;whiteSpace=wrap;html=1;align=center;" parent="1" vertex="1">
          <mxGeometry x="1120.51" y="1566.11" width="100" height="40" as="geometry" />
        </mxCell>
        <mxCell id="Oc1ZdkjXdi-IqZoQddms-11" value="" style="endArrow=oval;html=1;rounded=0;endFill=0;entryX=0.5;entryY=1;entryDx=0;entryDy=0;" parent="1" target="Oc1ZdkjXdi-IqZoQddms-12" edge="1">
          <mxGeometry width="50" height="50" relative="1" as="geometry">
            <mxPoint x="1160" y="1566.1499999999999" as="sourcePoint" />
            <mxPoint x="1150.51" y="1535.84" as="targetPoint" />
          </mxGeometry>
        </mxCell>
        <mxCell id="Oc1ZdkjXdi-IqZoQddms-12" value="&lt;font style=&quot;font-size: 7px;&quot;&gt;Cognome&lt;/font&gt;" style="text;html=1;strokeColor=none;fillColor=none;align=center;verticalAlign=middle;whiteSpace=wrap;rounded=0;rotation=0;" parent="1" vertex="1">
          <mxGeometry x="1130" y="1506.1499999999999" width="60" height="30" as="geometry" />
        </mxCell>
        <mxCell id="Oc1ZdkjXdi-IqZoQddms-13" value="" style="endArrow=oval;html=1;rounded=0;endFill=0;entryX=0.5;entryY=1;entryDx=0;entryDy=0;" parent="1" target="Oc1ZdkjXdi-IqZoQddms-14" edge="1">
          <mxGeometry width="50" height="50" relative="1" as="geometry">
            <mxPoint x="1190.51" y="1566.11" as="sourcePoint" />
            <mxPoint x="1181.02" y="1535.8" as="targetPoint" />
          </mxGeometry>
        </mxCell>
        <mxCell id="Oc1ZdkjXdi-IqZoQddms-14" value="&lt;font style=&quot;font-size: 7px;&quot;&gt;DDN&lt;/font&gt;" style="text;html=1;strokeColor=none;fillColor=none;align=center;verticalAlign=middle;whiteSpace=wrap;rounded=0;rotation=0;" parent="1" vertex="1">
          <mxGeometry x="1160.51" y="1506.11" width="60" height="30" as="geometry" />
        </mxCell>
        <mxCell id="Oc1ZdkjXdi-IqZoQddms-15" value="" style="endArrow=oval;html=1;rounded=0;endFill=0;entryX=0.5;entryY=1;entryDx=0;entryDy=0;" parent="1" target="Oc1ZdkjXdi-IqZoQddms-16" edge="1">
          <mxGeometry width="50" height="50" relative="1" as="geometry">
            <mxPoint x="1220" y="1566.11" as="sourcePoint" />
            <mxPoint x="1210.51" y="1535.8" as="targetPoint" />
          </mxGeometry>
        </mxCell>
        <mxCell id="Oc1ZdkjXdi-IqZoQddms-16" value="&lt;div&gt;&lt;font style=&quot;font-size: 7px;&quot;&gt;Numero&lt;/font&gt;&lt;/div&gt;&lt;div&gt;&lt;font style=&quot;font-size: 7px;&quot;&gt;Telefono&lt;/font&gt;&lt;/div&gt;" style="text;html=1;strokeColor=none;fillColor=none;align=center;verticalAlign=middle;whiteSpace=wrap;rounded=0;rotation=0;" parent="1" vertex="1">
          <mxGeometry x="1190" y="1506.11" width="60" height="30" as="geometry" />
        </mxCell>
        <mxCell id="Oc1ZdkjXdi-IqZoQddms-17" value="" style="endArrow=none;html=1;rounded=0;endFill=0;entryX=0.5;entryY=1;entryDx=0;entryDy=0;startArrow=oval;startFill=0;" parent="1" edge="1">
          <mxGeometry width="50" height="50" relative="1" as="geometry">
            <mxPoint x="1130" y="1636.1499999999999" as="sourcePoint" />
            <mxPoint x="1130" y="1606.11" as="targetPoint" />
          </mxGeometry>
        </mxCell>
        <mxCell id="Oc1ZdkjXdi-IqZoQddms-18" value="&lt;font style=&quot;font-size: 7px;&quot;&gt;Email&lt;/font&gt;" style="text;html=1;strokeColor=none;fillColor=none;align=center;verticalAlign=middle;whiteSpace=wrap;rounded=0;rotation=0;" parent="1" vertex="1">
          <mxGeometry x="1100.51" y="1626.11" width="60" height="30" as="geometry" />
        </mxCell>
        <mxCell id="Oc1ZdkjXdi-IqZoQddms-19" value="" style="endArrow=oval;html=1;rounded=0;endFill=1;" parent="1" edge="1">
          <mxGeometry width="50" height="50" relative="1" as="geometry">
            <mxPoint x="1120" y="1586.11" as="sourcePoint" />
            <mxPoint x="1090" y="1586.11" as="targetPoint" />
          </mxGeometry>
        </mxCell>
        <mxCell id="Oc1ZdkjXdi-IqZoQddms-20" value="&lt;font style=&quot;font-size: 7px;&quot;&gt;ID&lt;/font&gt;" style="text;html=1;strokeColor=none;fillColor=none;align=center;verticalAlign=middle;whiteSpace=wrap;rounded=0;rotation=0;" parent="1" vertex="1">
          <mxGeometry x="1040.51" y="1571.11" width="60" height="30" as="geometry" />
        </mxCell>
        <mxCell id="Oc1ZdkjXdi-IqZoQddms-34" value="" style="endArrow=oval;html=1;rounded=0;endFill=0;entryX=0.5;entryY=1;entryDx=0;entryDy=0;" parent="1" target="Oc1ZdkjXdi-IqZoQddms-35" edge="1">
          <mxGeometry width="50" height="50" relative="1" as="geometry">
            <mxPoint x="1645" y="1880" as="sourcePoint" />
            <mxPoint x="1635.51" y="1849.69" as="targetPoint" />
          </mxGeometry>
        </mxCell>
        <mxCell id="Oc1ZdkjXdi-IqZoQddms-35" value="&lt;div&gt;&lt;font style=&quot;font-size: 7px;&quot;&gt;Orario&lt;/font&gt;&lt;/div&gt;&lt;div&gt;&lt;font style=&quot;font-size: 7px;&quot;&gt;Richiesta&lt;/font&gt;&lt;/div&gt;" style="text;html=1;strokeColor=none;fillColor=none;align=center;verticalAlign=middle;whiteSpace=wrap;rounded=0;rotation=0;" parent="1" vertex="1">
          <mxGeometry x="1615" y="1820" width="60" height="30" as="geometry" />
        </mxCell>
        <mxCell id="Oc1ZdkjXdi-IqZoQddms-36" value="Richiesta Prenotazione" style="shape=ext;margin=3;double=1;whiteSpace=wrap;html=1;align=center;" parent="1" vertex="1">
          <mxGeometry x="1595" y="1880" width="100" height="40" as="geometry" />
        </mxCell>
        <mxCell id="Oc1ZdkjXdi-IqZoQddms-41" value="" style="endArrow=oval;html=1;rounded=0;endFill=0;entryX=0.5;entryY=1;entryDx=0;entryDy=0;" parent="1" target="Oc1ZdkjXdi-IqZoQddms-42" edge="1">
          <mxGeometry width="50" height="50" relative="1" as="geometry">
            <mxPoint x="1682.25" y="1880.04" as="sourcePoint" />
            <mxPoint x="1672.76" y="1849.73" as="targetPoint" />
          </mxGeometry>
        </mxCell>
        <mxCell id="Oc1ZdkjXdi-IqZoQddms-42" value="&lt;font style=&quot;font-size: 7px;&quot;&gt;Numero Passeggeri&lt;/font&gt;" style="text;html=1;strokeColor=none;fillColor=none;align=center;verticalAlign=middle;whiteSpace=wrap;rounded=0;rotation=0;" parent="1" vertex="1">
          <mxGeometry x="1652.25" y="1820.04" width="60" height="30" as="geometry" />
        </mxCell>
        <mxCell id="Oc1ZdkjXdi-IqZoQddms-43" value="" style="endArrow=none;html=1;rounded=0;endFill=0;entryX=0.5;entryY=1;entryDx=0;entryDy=0;startArrow=oval;startFill=0;" parent="1" edge="1">
          <mxGeometry width="50" height="50" relative="1" as="geometry">
            <mxPoint x="1611.92" y="1950.04" as="sourcePoint" />
            <mxPoint x="1611.92" y="1920" as="targetPoint" />
          </mxGeometry>
        </mxCell>
        <mxCell id="Oc1ZdkjXdi-IqZoQddms-44" value="&lt;font style=&quot;font-size: 7px;&quot;&gt;Punto di raccolta&lt;/font&gt;" style="text;html=1;strokeColor=none;fillColor=none;align=center;verticalAlign=middle;whiteSpace=wrap;rounded=0;rotation=0;" parent="1" vertex="1">
          <mxGeometry x="1582.43" y="1950" width="60" height="20" as="geometry" />
        </mxCell>
        <mxCell id="Oc1ZdkjXdi-IqZoQddms-47" value="" style="endArrow=none;html=1;rounded=0;endFill=0;entryX=0.5;entryY=1;entryDx=0;entryDy=0;startArrow=oval;startFill=0;" parent="1" edge="1">
          <mxGeometry width="50" height="50" relative="1" as="geometry">
            <mxPoint x="1681.74" y="1950.04" as="sourcePoint" />
            <mxPoint x="1681.74" y="1920" as="targetPoint" />
          </mxGeometry>
        </mxCell>
        <mxCell id="Oc1ZdkjXdi-IqZoQddms-48" value="&lt;font style=&quot;font-size: 7px;&quot;&gt;Punto di rilascio&lt;/font&gt;" style="text;html=1;strokeColor=none;fillColor=none;align=center;verticalAlign=middle;whiteSpace=wrap;rounded=0;rotation=0;" parent="1" vertex="1">
          <mxGeometry x="1652.25" y="1950" width="60" height="20" as="geometry" />
        </mxCell>
        <mxCell id="Oc1ZdkjXdi-IqZoQddms-49" value="" style="endArrow=oval;html=1;rounded=0;endFill=1;" parent="1" target="Oc1ZdkjXdi-IqZoQddms-50" edge="1">
          <mxGeometry width="50" height="50" relative="1" as="geometry">
            <mxPoint x="1604.8200000000002" y="1880.5899999999997" as="sourcePoint" />
            <mxPoint x="1607.0600000000002" y="1840.0399999999995" as="targetPoint" />
          </mxGeometry>
        </mxCell>
        <mxCell id="Oc1ZdkjXdi-IqZoQddms-50" value="&lt;font style=&quot;font-size: 7px;&quot;&gt;ID_Richiesta&lt;/font&gt;" style="text;html=1;strokeColor=none;fillColor=none;align=center;verticalAlign=middle;whiteSpace=wrap;rounded=0;" parent="1" vertex="1">
          <mxGeometry x="1575.0000000000002" y="1820.0399999999995" width="60" height="30" as="geometry" />
        </mxCell>
        <mxCell id="TRuPHE4WounVYPKn9Nc9-2" value="" style="endArrow=oval;html=1;rounded=0;exitX=0.5;exitY=0;exitDx=0;exitDy=0;endFill=0;" edge="1" parent="1" target="TRuPHE4WounVYPKn9Nc9-3">
          <mxGeometry width="50" height="50" relative="1" as="geometry">
            <mxPoint x="2030.18" y="1830.01" as="sourcePoint" />
            <mxPoint x="2030.18" y="1780.01" as="targetPoint" />
          </mxGeometry>
        </mxCell>
        <mxCell id="TRuPHE4WounVYPKn9Nc9-3" value="&lt;font style=&quot;font-size: 7px;&quot;&gt;Stelle_Autista&lt;br&gt;&lt;/font&gt;" style="text;html=1;strokeColor=none;fillColor=none;align=center;verticalAlign=middle;whiteSpace=wrap;rounded=0;" vertex="1" parent="1">
          <mxGeometry x="2000.18" y="1770.01" width="60" height="30" as="geometry" />
        </mxCell>
        <mxCell id="TRuPHE4WounVYPKn9Nc9-6" value="" style="endArrow=oval;html=1;rounded=0;exitX=0;exitY=0.25;exitDx=0;exitDy=0;endFill=0;" edge="1" parent="1" target="TRuPHE4WounVYPKn9Nc9-7" source="SL3OJ4g4mQe82jDkw0CZ-364">
          <mxGeometry width="50" height="50" relative="1" as="geometry">
            <mxPoint x="1914.74" y="1845.56" as="sourcePoint" />
            <mxPoint x="1914.74" y="1795.56" as="targetPoint" />
          </mxGeometry>
        </mxCell>
        <mxCell id="TRuPHE4WounVYPKn9Nc9-7" value="&lt;font style=&quot;font-size: 7px;&quot;&gt;Commento_Utente&lt;/font&gt;" style="text;html=1;strokeColor=none;fillColor=none;align=center;verticalAlign=middle;whiteSpace=wrap;rounded=0;" vertex="1" parent="1">
          <mxGeometry x="1832.5" y="1830.56" width="67.5" height="30" as="geometry" />
        </mxCell>
        <mxCell id="TRuPHE4WounVYPKn9Nc9-8" value="" style="endArrow=oval;html=1;rounded=0;exitX=0;exitY=0.25;exitDx=0;exitDy=0;endFill=0;" edge="1" parent="1" target="TRuPHE4WounVYPKn9Nc9-9">
          <mxGeometry width="50" height="50" relative="1" as="geometry">
            <mxPoint x="1922.24" y="1865.44" as="sourcePoint" />
            <mxPoint x="1914.98" y="1815" as="targetPoint" />
          </mxGeometry>
        </mxCell>
        <mxCell id="TRuPHE4WounVYPKn9Nc9-9" value="&lt;font style=&quot;font-size: 7px;&quot;&gt;Commento_Autista&lt;br&gt;&lt;/font&gt;" style="text;html=1;strokeColor=none;fillColor=none;align=center;verticalAlign=middle;whiteSpace=wrap;rounded=0;" vertex="1" parent="1">
          <mxGeometry x="1832.74" y="1850" width="67.5" height="30" as="geometry" />
        </mxCell>
        <mxCell id="TRuPHE4WounVYPKn9Nc9-10" value="" style="endArrow=oval;html=1;rounded=0;endFill=0;entryX=0.5;entryY=1;entryDx=0;entryDy=0;exitX=1;exitY=0.75;exitDx=0;exitDy=0;" edge="1" parent="1" target="TRuPHE4WounVYPKn9Nc9-11" source="Oc1ZdkjXdi-IqZoQddms-36">
          <mxGeometry width="50" height="50" relative="1" as="geometry">
            <mxPoint x="1695" y="1906.1" as="sourcePoint" />
            <mxPoint x="1720.51" y="1924.6899999999998" as="targetPoint" />
          </mxGeometry>
        </mxCell>
        <mxCell id="TRuPHE4WounVYPKn9Nc9-11" value="&lt;font style=&quot;font-size: 7px;&quot;&gt;DataRichiesta&lt;/font&gt;" style="text;html=1;strokeColor=none;fillColor=none;align=center;verticalAlign=middle;whiteSpace=wrap;rounded=0;rotation=0;" vertex="1" parent="1">
          <mxGeometry x="1712.25" y="1879.9999999999998" width="60" height="30" as="geometry" />
        </mxCell>
      </root>
    </mxGraphModel>
  </diagram>
</mxfile>
